<svg width="20" height="16" viewBox="0 0 20 16" fill="none" xmlns="http://www.w3.org/2000/svg">
<path d="M19.5245 2.09684C18.8114 2.41219 18.0549 2.61847 17.2805 2.70876C18.0966 2.22072 18.7072 1.45227 18.9982 0.54694C18.2314 1.00223 17.3923 1.32301 16.5173 1.49541C15.9287 0.866494 15.1488 0.449578 14.2988 0.309426C13.4488 0.169274 12.5764 0.313731 11.8169 0.720358C11.0575 1.12699 10.4536 1.77302 10.099 2.55812C9.74446 3.34322 9.65909 4.22343 9.85616 5.06203C8.30256 4.98422 6.78268 4.58056 5.39519 3.87725C4.00771 3.17395 2.78363 2.18672 1.80243 0.979654C1.30278 1.83995 1.14967 2.8583 1.37426 3.82748C1.59886 4.79667 2.18428 5.64387 3.01141 6.1967C2.39084 6.17719 1.78392 6.00965 1.24122 5.70804C1.24122 5.72465 1.24122 5.74126 1.24122 5.75787C1.24145 6.66013 1.55371 7.53455 2.12505 8.23287C2.69639 8.93119 3.49165 9.41044 4.37599 9.58936C4.04032 9.68049 3.69404 9.72664 3.34622 9.7266C3.09949 9.72677 2.85331 9.70335 2.61104 9.65667C2.86119 10.4323 3.3474 11.1105 4.00174 11.5963C4.65608 12.0822 5.44585 12.3515 6.2607 12.3666C4.62161 13.6481 2.54242 14.2297 0.476318 13.9847C2.15562 15.0615 4.09384 15.6663 6.0875 15.7357C8.08116 15.8051 10.0567 15.3364 11.8068 14.379C13.5569 13.4216 15.017 12.0107 16.0338 10.2945C17.0506 8.57817 17.5866 6.61981 17.5856 4.62494C17.5856 4.45535 17.5821 4.28664 17.5751 4.1188C18.3402 3.56643 19.0004 2.88167 19.5245 2.09684Z" fill="#ffffff"/>
</svg>
