<svg width="26" height="16" viewBox="0 0 26 16" fill="none" xmlns="http://www.w3.org/2000/svg">
<path d="M24.0019 11.7708C24.6122 12.413 25.9365 13.4906 25.6961 14.5877C25.4746 15.5947 24.0184 15.2274 22.6045 15.2858C20.9904 15.3563 20.0337 15.3928 19.0629 14.5877C18.6057 14.2058 18.3371 13.7533 17.8988 13.2473C17.5006 12.79 16.9986 11.9702 16.3153 12.0019C15.0876 12.0651 15.4717 13.8311 15.0358 15.0353C8.21162 16.1445 5.47113 11.7927 3.05346 7.56977C1.88233 5.524 0.19043 1.13083 0.19043 1.13083L5.01634 1.1138C5.01634 1.1138 6.5645 4.02069 6.97451 4.76992C7.32326 5.40724 7.70735 5.91321 8.10323 6.48243C8.43548 6.95434 8.96096 7.87871 9.53592 7.8033C10.4714 7.67924 10.6411 3.93312 10.0614 2.67793C9.83047 2.16953 9.27672 1.99195 8.70411 1.81924C8.89734 0.559181 14.1168 0.296466 14.9604 1.27435C16.1857 2.69496 14.1121 6.65027 15.7898 7.8033C18.1462 6.52865 20.1586 1.19164 20.1586 1.19164L25.8092 1.22813C25.8092 1.22813 24.9256 4.11313 23.9995 5.39265C23.4599 6.14187 21.669 7.8106 21.7397 9.04876C21.7963 10.0291 23.2525 10.9826 24.0019 11.7708Z" fill="white"/>
</svg>
