<svg width="30" height="30" viewBox="0 0 30 30" fill="none" xmlns="http://www.w3.org/2000/svg">
<path fill-rule="evenodd" clip-rule="evenodd" d="M26.8572 20.9687C27.3663 19.0335 27.3663 15.0204 27.3663 15.0204C27.3663 15.0204 27.3868 10.9873 26.8572 9.05212C26.5719 7.9929 25.7367 7.15742 24.6775 6.87238C22.7423 6.34277 15.0016 6.34277 15.0016 6.34277C15.0016 6.34277 7.261 6.34277 5.32584 6.85215C4.28685 7.13719 3.43113 7.9929 3.1461 9.05212C2.63672 10.9873 2.63672 15.0001 2.63672 15.0001C2.63672 15.0001 2.63672 19.0335 3.1461 20.9481C3.43144 22.0074 4.26662 22.8428 5.32584 23.1279C7.28123 23.6575 15.0016 23.6575 15.0016 23.6575C15.0016 23.6575 22.7423 23.6575 24.6775 23.1481C25.7367 22.8631 26.5719 22.0279 26.8572 20.9687ZM18.972 15.0002L12.5352 18.7075V11.293L18.972 15.0002Z" fill="#ffffff"/>
</svg>
